<svg xmlns="http://www.w3.org/2000/svg" viewBox="0 0 512 512">
  <defs>
    <linearGradient id="shieldGrad" x1="0" x2="1" y1="0" y2="1">
      <stop offset="0%" stop-color="#10b981" />
      <stop offset="100%" stop-color="#059669" />
    </linearGradient>
    <filter id="glow" x="-50%" y="-50%" width="200%" height="200%">
      <feGaussianBlur stdDeviation="10" result="blur" />
      <feMerge>
        <feMergeNode in="blur" />
        <feMergeNode in="SourceGraphic" />
      </feMerge>
    </filter>
  </defs>
  <rect width="512" height="512" rx="96" fill="#060b10" />
  <path
    fill="url(#shieldGrad)"
    filter="url(#glow)"
    d="M256 72c-78 0-142 64-142 142v96c0 116 116 184 142 184s142-68 142-184v-96c0-78-64-142-142-142zm0 56c47 0 86 38 86 86v76c0 98-98 154-86 154s-86-56-86-154v-76c0-47 38-86 86-86z"
  />
  <path
    fill="rgba(255,255,255,0.85)"
    d="M270 186c-14 16-27 29-40 34-6 2-12 3-16 3-8 0-14-4-15-12-2-12 6-21 14-21 6 0 12 2 17 4 10 4 21 12 35 12 4 0 7 3 7 7 0 4-3 7-7 7-19 0-34-11-46-20-4-3-9-5-13-5-8 0-14 6-14 14 0 6 2 12 7 16 9 7 21 12 32 17 10 5 20 9 28 13 9 5 16 11 20 20 3 5 2 11-2 16-7 11-22 10-30 3-7-6-14-13-20-20-6-8-15-14-26-19-9-4-17-8-25-14-9-7-16-16-18-28-2-14 4-27 16-35 18-11 40-7 55 9 2 2 4 5 6 7 6 6 13 11 22 16 5 3 10 4 15 4 13 0 24-11 24-24 0-14-12-25-25-25z"
  />
</svg>
